@startuml ERD Demo

entity "Account" as account {
  *AccountId : number <<generated>>
  --
  *AccountRoleId : number <<FK>>
  Name: varchar
  Code: varchar
}

map "Role" as role {
 3 => Merchant
 4 => Buyer
 5 => Admin
}

account ||--o{ role

entity "User" as user {
  *UserId : number <<generated>>
  --
  *AccountId : number <<FK>>
}


account ||--o{ user::AccountId

entity "Lot" as lot {
  *LotId : number <<generated>>
  --
  *AccountId : number <<FK>>
  *CreatedBy : number <<FK>>
}

account ||--o{ lot::AccountId

entity "CartOrder" as cartorder {
  *CartOrderId : number <<generated>>
  --
  *BuyerId : number <<FK>>
  *CreatedBy : number <<FK>>
}

account ||--o{ cartorder::AccountId

entity "Product" as product {
  *ProductId : number <<generated>>    
  --
  *CategoryId : number <<FK>>    
}

entity "Category" as category {
  *CategoryId : number <<generated>>    
  --
}

category ||--o{ product


entity "StockLineItem" as stocklineitem {
  *StockLineItemId : number <<generated>>
  --
  *LotId : number <<FK>>    
  *ProductId : number <<FK>>
}

product ||--o{ stocklineitem::ProductId
lot::LotId ||--o{ stocklineitem::LotId 

@enduml
